<?xml version="1.0" standalone="no"?>
<!DOCTYPE svg PUBLIC "-//W3C//DTD SVG 1.1//EN" "http://www.w3.org/Graphics/SVG/1.1/DTD/svg11.dtd" >
<svg xmlns="http://www.w3.org/2000/svg">
<metadata></metadata>
<defs>
<font id="rasegpl-boldbold" horiz-adv-x="2048" >
<font-face units-per-em="2048" ascent="1638" descent="-410" />
<missing-glyph horiz-adv-x="1024" />
<glyph />
<glyph />
<glyph unicode="&#xd;" horiz-adv-x="1024" />
<glyph unicode=" "  horiz-adv-x="1024" />
<glyph unicode="&#x09;" horiz-adv-x="1024" />
<glyph unicode="&#xa0;" horiz-adv-x="1024" />
<glyph unicode="!" horiz-adv-x="694" d="M164 0v307h409v-307h-409zM164 410v1228h409v-1228h-409z" />
<glyph unicode="&#x22;" horiz-adv-x="901" d="M35 1591l389 199v-903h-311zM449 887v903l391 -199l-78 -704h-313z" />
<glyph unicode="#" horiz-adv-x="2201" d="M14 354l82 469h355q4 12 6 25.5l6 40.5h-354l81 467h355q10 66 23.5 137.5t23.5 128.5h471l-47 -266h239q12 66 24.5 137.5t23.5 128.5h473l-47 -266h354l-82 -467h-354q-4 -12 -6.5 -26.5t-6.5 -39.5h355l-82 -469h-355q-6 -41 -14 -88t-16.5 -94t-16.5 -91t-14 -81 h-473l61 354h-237q-8 -41 -16.5 -88t-16.5 -94t-16.5 -91t-14.5 -81h-471l60 354h-353zM924 823h237q4 12 6 24.5t7 41.5h-238q-4 -12 -6 -25.5z" />
<glyph unicode="$" horiz-adv-x="1691" d="M37 596l455 2q4 -45 8 -68.5t8 -33.5q10 -12 45 -13h119v113h-119q-319 0 -455 266q-61 121 -61 250q0 154 70.5 268.5t195.5 184.5q123 63 250 63h119v217h303v-217h149q322 0 453 -270v2q61 -119 61 -305h-454q-4 43 -8.5 68.5t-8.5 35.5l2 -6q-10 14 -45 14h-149v-112 h149q125 0 248 -62h2q264 -135 264 -454q0 -315 -264 -455q-125 -59 -250 -59h-149v-285h-303v285h-119q-319 0 -455 266q-61 121 -61 305zM496 1116q2 -31 12 -49q10 -12 45 -12h119v112h-115q-16 -2 -27.5 -4t-19.5 -6q-14 -8 -14 -41zM975 483h143q33 4 51 13l-6 -2 q16 10 17 45q0 33 -13 45q-16 8 -26.5 10t-16.5 2h-149v-113z" />
<glyph unicode="%" horiz-adv-x="1720" d="M-49 0l1216 1622h521l-1217 -1622h-520zM121 1329q0 76 51 127q53 53 129 53q78 0 125 -53q53 -51 53 -127t-53 -127q-49 -51 -125 -51t-129 53q-51 51 -51 125zM1159 293q0 76 51 125q51 53 127 53t127 -53q54 -47 54 -125q0 -76 -54 -129q-55 -51 -127 -51 q-74 0 -125 51q-53 53 -53 129z" />
<glyph unicode="&#x26;" horiz-adv-x="1746" d="M12 256q0 106 133 274q47 55 115 126t154 155q-285 283 -285 479q0 215 297 297q57 16 124.5 23.5t147.5 11.5q530 0 531 -303q0 -84 -46 -184.5t-132 -216.5q-39 -53 -79 -100.5t-83 -90.5q37 -33 66.5 -58.5t80.5 -66.5q10 29 13.5 57.5t3.5 61.5q0 25 -5.5 62.5 t-15.5 84.5h410q41 -121 41 -219q0 -90 -17.5 -175t-60.5 -179l352 -295h-477l-102 94q-195 -94 -480 -94q-686 0 -686 256zM516 1225q0 -43 37 -103.5t104 -136.5q195 176 195 264q0 66 -152 72q-184 -8 -184 -96zM555 418q0 -23 143 -23q37 0 75 5.5t67 13.5 q-39 35 -76 70.5t-82 76.5q-66 -53 -96.5 -87t-30.5 -56z" />
<glyph unicode="'" horiz-adv-x="567" d="M78 887v903l391 -199l-78 -704h-313z" />
<glyph unicode="(" horiz-adv-x="724" d="M-27 821q0 412 351 801h460q-381 -463 -381 -836q0 -393 402 -786h-481q-350 381 -351 821z" />
<glyph unicode=")" horiz-adv-x="724" d="M-113 0q397 391 398 786q0 371 -379 836h459q352 -389 352 -801q0 -442 -352 -821h-478z" />
<glyph unicode="*" horiz-adv-x="1048" d="M-6 1298l360 52l160 329l160 -329q37 -6 87 -13.5t100 -14.5t95 -13t76 -11l-260 -256q6 -37 14.5 -85t17.5 -98t17 -95t15 -76l-322 168q-33 -16 -77 -38.5t-89 -46t-86 -45t-69 -36.5l59 354q-27 27 -62.5 62t-72.5 70.5t-69 68.5t-54 53z" />
<glyph unicode="+" horiz-adv-x="1495" d="M135 377v491h377v377h492v-377h376v-491h-376v-377h-492v377h-377z" />
<glyph unicode="," horiz-adv-x="931" d="M172 264q0 111 78 189q80 75 186 75q53 0 100.5 -21.5t83 -57t57 -83t23.5 -100.5q10 -51 11 -94q0 -305 -344 -608l-148 147q29 29 52.5 73t45.5 101q14 37 25.5 70t15.5 57q-80 25 -133 93.5t-53 158.5z" />
<glyph unicode="-" d="M31 340v549h1988v-549h-1988z" />
<glyph unicode="." horiz-adv-x="1038" d="M201 317q0 127 92 222q98 94 225 94q123 0 221 -94q94 -98 95 -222q0 -127 -95 -225q-94 -92 -221 -92q-129 0 -225 92q-92 96 -92 225z" />
<glyph unicode="/" d="M-2 -362l967 1982h604l-967 -1982h-604z" />
<glyph unicode="0" horiz-adv-x="2000" d="M16 0v1849h1848v-1849h-1848zM563 547h754v756h-754v-756z" />
<glyph unicode="1" horiz-adv-x="1024" d="M213 0v1849h549v-1849h-549z" />
<glyph unicode="2" horiz-adv-x="2000" d="M14 6v1200h1301v101h-1301v546h1848v-981h-1301v-319h1301v-547h-1848z" />
<glyph unicode="3" horiz-adv-x="2000" d="M16 -2v547h1301v321h-1301v334h1301v100h-1301v547h1848v-1849h-1848z" />
<glyph unicode="4" horiz-adv-x="2045" d="M18 651v1194h547v-868h754v868h547v-1849h-547v655h-1301z" />
<glyph unicode="5" horiz-adv-x="2000" d="M18 -4v547h1301v108h-1301v1194h1848v-547h-1301v-321h1301v-981h-1848z" />
<glyph unicode="6" horiz-adv-x="2076" d="M27 0v1849h1847v-546h-1301v-322h1301v-981h-1847zM573 547h754v108h-754v-108z" />
<glyph unicode="7" horiz-adv-x="2017" d="M-20 10l976 1301h-919v547h1905l-1387 -1848h-575z" />
<glyph unicode="8" horiz-adv-x="2076" d="M25 -8v1849h1847v-1849h-1847zM571 539h754v321h-754v-321zM571 1194h754v100h-754v-100z" />
<glyph unicode="9" horiz-adv-x="2076" d="M31 657v1194h1847v-1847h-547v653h-1300zM578 985h753v320h-753v-320z" />
<glyph unicode=":" horiz-adv-x="737" d="M-29 379q0 158 111 268h-2q111 113 270 113q158 0 268 -111q113 -110 113 -270q0 -78 -27.5 -147.5t-85.5 -122.5v2q-111 -111 -268 -111q-158 0 -268 111q-111 111 -111 268zM-29 1243q0 158 111 268q111 111 268 111q158 0 268 -111v2q113 -110 113 -270 q0 -158 -113 -270q-111 -111 -268 -111q-158 0 -268 111q-111 115 -111 270z" />
<glyph unicode=";" horiz-adv-x="657" d="M-41 393q0 156 109 264q113 109 264 109q150 0 262 -109q111 -110 111 -264q0 -375 -232 -696l-272 110q16 51 30.5 107.5t20.5 112.5q-106 20 -193 106q-100 106 -100 260zM-41 1237q0 154 109 262q113 113 264 113q150 0 262 -113q111 -110 111 -262q0 -154 -111 -264 q-109 -109 -262 -109q-156 0 -264 109q-109 109 -109 264z" />
<glyph unicode="&#x3c;" d="M27 358v541l1994 746v-598l-1263 -422q315 -102 634.5 -207t628.5 -205v-600z" />
<glyph unicode="=" d="M31 98v561h1988v-561h-1988zM31 868v549h1988v-549h-1988z" />
<glyph unicode="&#x3e;" d="M27 213l1253 412q-311 104 -629.5 211.5t-623.5 210.5v598l1994 -746v-541l-1994 -745v600z" />
<glyph unicode="?" horiz-adv-x="1589" d="M2 1079q0 178 59 293v-2q127 252 428 252h535q123 0 236 -57h-3q252 -129 252 -430q0 -115 -57 -234q-59 -117 -166.5 -176t-261.5 -59h-147q-10 -2 -20.5 -5.5t-18.5 -7.5q-6 -2 -11 -53l-2 -141v-459h-463v442h-2v160q0 297 254 428q59 29 116.5 43t117.5 14h176 q29 0 37 9q12 35 12 41q0 33 -10 39q-14 4 -24.5 6t-14.5 2h-535q-29 0 -38 -10q-10 -37 -11 -95h-438z" />
<glyph unicode="@" horiz-adv-x="1720" d="M0 819q0 -340 239.5 -579.5t579.5 -239.5t579.5 239.5t239.5 579.5t-239.5 579.5t-579.5 239.5t-579.5 -239.5t-239.5 -579.5zM205 819q0 254 180 434.5t434 180.5t434.5 -180.5t180.5 -434.5t-180.5 -434t-434.5 -180t-434 180t-180 434zM383 649q0 -168 141 -239 q66 -35 133 -35h342q170 0 242 141q29 55 33 475v2v6q-2 164 -141 234q-66 35 -134 35h-342q-170 0 -241 -144q-33 -66 -33 -133l207 8q0 8 12 34t55 26h342q10 0 39 -12.5t29 -53.5q0 -25 -10 -43q-14 -27 -58 -26h-342q-68 0 -133 -33q-141 -72 -141 -242zM590 649 q0 43 26 58q18 10 41 10h342q33 0 64 6q-2 -98 -6 -107q-19 -34 -58 -34h-340q-12 2 -40.5 14t-28.5 53z" />
<glyph unicode="A" horiz-adv-x="1927" d="M-41 -4l164 434h-137v328h262q96 268 198.5 545.5t200.5 543.5h500l407 -1089h254v-328h-137q41 -104 85 -224t79 -210h-551l-143 434h-490q-35 -102 -71.5 -219t-69.5 -215h-551zM766 758h264q-20 61 -34.5 105l-29 88t-30.5 95.5t-39 122.5z" />
<glyph unicode="B" horiz-adv-x="1986" d="M-53 -2v1849h1523v-868h326v-981h-1849zM494 537h755v247h-755v-247zM494 979h430v321h-430v-321z" />
<glyph unicode="C" horiz-adv-x="2017" d="M-49 0v1849h1849v-546h-1302v-756h1302v-547h-1849z" />
<glyph unicode="D" horiz-adv-x="2017" d="M31 6v547h1300v754h-753v-654h-547v1200h1847v-1847h-1847z" />
<glyph unicode="E" horiz-adv-x="1982" d="M31 12v1848h1847v-547h-1300v-226h1300v-333h-1300v-195h1300v-547h-1847z" />
<glyph unicode="F" horiz-adv-x="2045" d="M31 -10v1849h1847v-547h-1300v-321h1300v-334h-1300v-647h-547z" />
<glyph unicode="G" horiz-adv-x="2017" d="M31 12v1848h1847v-547h-1300v-322h1300v-979h-1847zM578 559h753v98h-753v-98z" />
<glyph unicode="H" horiz-adv-x="2045" d="M31 4v1847h547v-866h753v866h547v-1847h-547v647h-753v-647h-547z" />
<glyph unicode="I" horiz-adv-x="2017" d="M18 -8v547h654v755h-654v547h1848v-547h-654v-755h654v-547h-1848z" />
<glyph unicode="J" horiz-adv-x="2017" d="M25 0v981h546v-434h754v1302h547v-1849h-1847z" />
<glyph unicode="K" horiz-adv-x="2017" d="M31 -8v1849h547v-868h540v868h547v-868h213v-1305h-547v979h-753v-655h-547z" />
<glyph unicode="L" horiz-adv-x="2017" d="M23 10v1848h546v-1301h1301v-547h-1847z" />
<glyph unicode="M" horiz-adv-x="2017" d="M31 -8v1849h528l395 -1179q98 293 198.5 592.5t197.5 586.5h528v-1849h-547v319q-31 -82 -59.5 -162.5t-57.5 -156.5h-512l-124 332v-332h-547z" />
<glyph unicode="N" horiz-adv-x="2076" d="M31 -12v1849h518l782 -1040v1040h547v-1849h-518l-782 1042v-1042h-547z" />
<glyph unicode="O" horiz-adv-x="2045" d="M31 -6v1849h1847v-1849h-1847zM578 541h753v755h-753v-755z" />
<glyph unicode="P" horiz-adv-x="2045" d="M31 12v1848h1847v-1194h-1300v-654h-547zM578 991h753v322h-753v-322z" />
<glyph unicode="Q" horiz-adv-x="2000" d="M25 0v1849h1847v-1849h-653v-324h-541v324h-653zM571 547h107v434h541v-434h106v756h-754v-756z" />
<glyph unicode="R" horiz-adv-x="2000" d="M12 -4v1849h1848v-1194h-213v-979h-547v979h-541v-655h-547zM559 977h754v321h-754v-321z" />
<glyph unicode="S" horiz-adv-x="1972" d="M16 0v547h1301v108h-1301v1194h1414v-546h-867v-322h1301v-981h-1848z" />
<glyph unicode="T" horiz-adv-x="2000" d="M25 1303v546h1847v-546h-647v-1303h-547v1303h-653z" />
<glyph unicode="U" horiz-adv-x="2017" d="M10 0v1849h547v-1302h754v1302h547v-1849h-1848z" />
<glyph unicode="V" horiz-adv-x="2107" d="M66 1860h552l396 -1178q98 293 198.5 592t196.5 586h553l-696 -1848h-512z" />
<glyph unicode="W" horiz-adv-x="2045" d="M31 -10v1849h547v-319q61 170 116 319h512l125 -323v323h547v-1849h-528l-396 1181l-395 -1181h-528z" />
<glyph unicode="X" horiz-adv-x="2166" d="M12 12l752 1002q-74 98 -156 206.5t-166 220t-165.5 219t-153.5 202.5h575l351 -465q86 115 176 234.5t174 230.5h575l-635 -848q86 -117 181.5 -245t192.5 -258t191.5 -257t180.5 -242h-576l-460 619q-115 -154 -233 -311.5t-228 -307.5h-576z" />
<glyph unicode="Y" horiz-adv-x="2017" d="M27 651v1194h546v-868h754v868h547v-1194h-653v-655h-541v655h-653z" />
<glyph unicode="Z" horiz-adv-x="2031" d="M4 0l977 1303h-920v546h1905l-977 -1302h920v-547h-1905z" />
<glyph unicode="[" d="M8 -367v1987h1036v-485h-444v-1000h444v-502h-1036z" />
<glyph unicode="\" d="M-2 1620h604l967 -1982h-604z" />
<glyph unicode="]" d="M8 131h465v999h-465v490h1036v-1987h-1036v498z" />
<glyph unicode="^" horiz-adv-x="1376" d="M203 963l409 692h250l408 -692h-383l-148 243q-37 -59 -76.5 -123.5t-74.5 -119.5h-385z" />
<glyph unicode="_" d="M31 188h1988v-561h-1988v561z" />
<glyph unicode="`" horiz-adv-x="714" d="M16 1577l297 203l484 -893h-332z" />
<glyph unicode="a" horiz-adv-x="2017" d="M18 0v1415h1848v-436h-1301v-541h754v488h547v-926h-1848z" />
<glyph unicode="b" horiz-adv-x="2000" d="M16 0v1849h547v-868h1301v-981h-1848zM563 438h754v209h-754v-209z" />
<glyph unicode="c" horiz-adv-x="1986" d="M25 0v1415h1847v-436h-1301v-541h1301v-438h-1847z" />
<glyph unicode="d" horiz-adv-x="1986" d="M16 0v981h1301v434h547v-1415h-1848zM563 438h754v267h-754v-267z" />
<glyph unicode="e" horiz-adv-x="1972" d="M20 0v1415h1848v-815h-1301v-162h1301v-438h-1848zM567 760h754v219h-754v-219z" />
<glyph unicode="f" horiz-adv-x="2045" d="M29 12v1413h1847v-434h-1301v-219h1301v-272h-1301v-488h-546z" />
<glyph unicode="g" horiz-adv-x="2045" d="M29 0v438h1300v137h-1300v840h1847v-1415h-1847zM575 760h754v219h-754v-219z" />
<glyph unicode="h" horiz-adv-x="2045" d="M31 -10v1415h547v-653h1300v-762h-547v489h-753v-489h-547z" />
<glyph unicode="i" horiz-adv-x="694" d="M123 0v1622h491v-1622h-491z" />
<glyph unicode="j" horiz-adv-x="1986" d="M16 0v801h547v-344h754v1026h547v-1483h-1848z" />
<glyph unicode="k" horiz-adv-x="2017" d="M25 -4v1485h546v-682h533v682h549v-682h219v-1057h-547v772h-754v-518h-546z" />
<glyph unicode="l" horiz-adv-x="1986" d="M16 0v1483h547v-1026h1301v-457h-1848z" />
<glyph unicode="m" horiz-adv-x="2000" d="M18 2v1415h527l397 -895l397 895h527v-1415h-547v252q-33 -66 -65.5 -129.5t-61.5 -122.5h-506l-121 246v-246h-547z" />
<glyph unicode="n" horiz-adv-x="2076" d="M31 2v1415h512l788 -788v788h547v-1415h-512l-788 789v-789h-547z" />
<glyph unicode="o" horiz-adv-x="2045" d="M27 0v1415h1847v-1415h-1847zM573 438h754v541h-754v-541z" />
<glyph unicode="p" horiz-adv-x="2045" d="M29 12v1413h1847v-925h-1301v-488h-546zM575 778h754v213h-754v-213z" />
<glyph unicode="q" horiz-adv-x="2017" d="M12 485v926h1848v-926h-654v-51h654v-438h-1201v489h-647zM559 764h754v211h-754v-211z" />
<glyph unicode="r" horiz-adv-x="1972" d="M14 2v1415h1848v-436h-1301v-979h-547z" />
<glyph unicode="s" horiz-adv-x="1812" d="M23 0v438h1300v115h-1300v862h1413v-436h-867v-148h1301v-831h-1847z" />
<glyph unicode="t" horiz-adv-x="1955" d="M4 1090v436h647v325h547v-325h653v-436h-653v-1088h-547v1088h-647z" />
<glyph unicode="u" horiz-adv-x="2000" d="M23 0v1415h546v-977h754v1411h547v-1849h-1847z" />
<glyph unicode="v" horiz-adv-x="1986" d="M-33 1411h561l398 -895l397 895h563l-712 -1415h-504z" />
<glyph unicode="w" horiz-adv-x="2076" d="M31 -4v1415h547v-246q31 63 61.5 127t58.5 119h506l127 -252v686h547v-1849h-526l-398 895q-98 -223 -200.5 -450.5t-196.5 -444.5h-526z" />
<glyph unicode="x" horiz-adv-x="2197" d="M-4 -8l760 762q-72 72 -158 157.5t-173 174t-170 171t-149 150.5h592l357 -356l356 356h592l-655 -653q86 -88 185 -186.5t199.5 -199t199 -196.5t182.5 -180h-592l-467 467l-467 -467h-592z" />
<glyph unicode="y" horiz-adv-x="1490" d="M-6 485v926h436v-647h535v647h442v-926h-487v-489h-439v489h-487z" />
<glyph unicode="z" horiz-adv-x="1519" d="M-41 0l737 979h-680v436h1471l-729 -977h672v-438h-1471z" />
<glyph unicode="{" horiz-adv-x="1622" d="M37 573v113q88 0 148.5 56.5t93.5 164.5q18 70 29 181.5t11 252.5q31 100 160 158q262 123 912 123v-113q-404 1 -562 -108q-47 -31 -57 -72q0 -236 -24 -346v2q-37 -197 -173 -285q-35 -23 -71.5 -39t-77.5 -30q41 -14 78 -31.5t71 -38.5q133 -92 173 -287v2 q25 -111 24 -346q10 -41 57 -71q158 -109 562 -109v-112q-651 0 -912 122q-129 57 -160 158q0 291 -40 432q-66 217 -232 223h-10zM770 -59v-7v7zM770 1321v6v-6z" />
<glyph unicode="|" horiz-adv-x="1024" d="M213 -223v2277h549v-2277h-549z" />
<glyph unicode="}" horiz-adv-x="1622" d="M37 -250q403 0 561 109q23 16 39 34.5t20 38.5q0 229 23 342q41 199 172 287q35 20 73 37.5t79 32.5q-88 29 -152 69q-135 92 -172 285q-10 55 -16.5 140t-6.5 202q-4 20 -20 38.5t-39 35.5q-158 109 -561 108v113q647 0 913 -123q129 -59 158 -158q0 -135 12.5 -248.5 t28.5 -185.5q35 -102 94.5 -161.5t147.5 -59.5v-113q-176 0 -242 -223q-41 -139 -41 -432q-29 -98 -158 -158q-266 -123 -913 -122v112zM657 -63l2 4zM657 1325l2 -4q0 2 -1 2t-1 2z" />
<glyph unicode="~" horiz-adv-x="1738" d="M117 1122v467q41 23 92 43.5t110 32.5q53 14 106.5 19.5t102.5 5.5q129 0 322 -78h-2q176 -70 309 -70q195 0 393 113v-455q-35 -29 -80 -48t-102 -34q-106 -23 -168 -22q-164 0 -379 78q-188 70 -293 69q-68 0 -176 -18v2q-111 -23 -235 -105z" />
<glyph unicode="&#xa1;" horiz-adv-x="694" d="M123 0v1622h491v-1622h-491z" />
<glyph unicode="&#xa2;" d="M23 618q0 365 172 617q104 150 270 242t371 122q2 2 6 3h4q0 4 -6 59v14q0 14 -1 37t-2 45.5t-1 42v29.5h342v-22.5t-1 -35t-1 -36v-25.5v-23.5v-18.5v-20.5t2 -33.5q31 -6 65.5 -11.5t63.5 -11.5q61 -14 129.5 -35.5t136.5 -56.5q92 -43 188.5 -106.5t198.5 -141.5v-2 q33 -29 3 -80t-112 -125q-16 -14 -34.5 -29.5t-34.5 -29.5q-37 -33 -91.5 -81t-93.5 -79q-129 92 -232 140.5t-185 52.5q2 -104 4 -200.5t4 -192t4 -193.5t4 -205q117 16 216 45t179 72q143 -141 248 -255t170 -200q-186 -98 -399 -162.5t-432 -93.5v-354h-342v359 q-383 80 -607 364q-207 268 -206 616zM625 610q0 -98 80 -213l-3 2q57 -78 129 -125v689q-61 -31 -96 -61t-59 -71q-25 -41 -38 -95t-13 -126z" />
<glyph unicode="&#xa3;" horiz-adv-x="1511" d="M2 717v278h121q-6 23 -15.5 42.5t-19.5 37.5q-29 49 -29 101q0 170 226 307v-2q225 141 508 141q344 0 673 -262l-313 -336q-197 172 -360 172q-156 0 -285 -111q2 -12 3 -22t1 -23v-21t-2 -24h229v-278h-315q-20 -37 -44 -73t-52 -73q57 11 108 11q182 0 348 -80 q141 -68 299 -68q74 0 163 26.5t194 84.5v-451q-178 -94 -357 -94q-184 0 -348 80q-135 68 -299 67q-145 0 -358 -110v405l-4 4q2 4 2 7.5t2 7.5v26l12 5q10 37 20.5 78.5t18.5 91.5l-2 -5q2 10 4 21.5t4 23.5v3v6q0 2 1 3t1 3h-135z" />
<glyph unicode="&#xa4;" horiz-adv-x="1720" d="M0 819q0 -340 239.5 -579.5t579.5 -239.5t579.5 239.5t239.5 579.5t-239.5 579.5t-579.5 239.5t-579.5 -239.5t-239.5 -579.5zM410 819q0 170 119.5 290t289.5 120t290 -120t120 -290t-120 -289.5t-290 -119.5t-289.5 119.5t-119.5 289.5z" />
<glyph unicode="&#xa5;" horiz-adv-x="1695" d="M-16 1622h508l344 -709q86 176 172 356.5t172 352.5h508l-312 -567h275v-398h-492q-8 -20 -13 -30.5t-26 -46.5h531v-398h-568v-569h-493v569h-570v398h533q-10 16 -20.5 36.5t-20.5 40.5h-492v398h273q-37 68 -78 141.5t-81 148t-79 145.5t-71 132z" />
<glyph unicode="&#xa7;" horiz-adv-x="2289" d="M29 778q0 35 6 68t16 67q37 109 154 224l217 -217q-53 94 -53 194q0 35 7 67.5t17 67.5h-2q37 113 115 187v-2q137 133 303 133q66 0 131 -23v2q66 -20 119 -57l2 2q131 131 303 131q59 0 133 -23q109 -35 184 -112l338 -342q133 -133 133 -301q0 -59 -22 -133 q-18 -57 -57 -112.5t-97 -113.5l-219 217q10 -20 19.5 -39.5t15.5 -39.5q18 -61 18 -131q0 -170 -135 -304q-137 -133 -303 -133q-68 0 -133 23q-31 10 -60.5 24.5t-56.5 30.5q-133 -133 -305 -133q-59 0 -133 23q-111 41 -186 112l-336 342q-133 133 -133 301zM432 784 q-2 -8 17 -26l333 -338q6 -4 15.5 -9t15.5 -10q4 0 6 2h-2q43 23 37 39l4 -6q-10 16 -15 26.5t-9 14.5l4 -6q-84 86 -167 171t-167 171q-20 16 -29 31q-39 -45 -43 -60zM770 1120l2 2q-2 -8 16 -26l336 -342q31 -33 58.5 -77t44.5 -91q29 -27 57.5 -54.5t54.5 -56.5l-4 2 q20 -16 31 -20q4 0 8 2h-2q43 20 37 39l4 -9q-10 18 -16 28.5t-8 14.5l4 -6l-336 342q-37 39 -69 85t-44 91q-27 29 -51.5 52.5t-50.5 50.5l4 -2q-10 10 -18.5 14t-12.5 6v-2q-8 4 -27 -14q-4 -8 -10 -16.5t-8 -12.5zM1325 1176l2 2q-2 -8 14 -27l336 -342q16 -12 27 -31 q43 49 45 60l-2 -2q4 10 -14 28l-334 340q-8 4 -16.5 8.5t-14.5 8.5q-6 2 -22 -15q-18 -23 -21 -30z" />
<glyph unicode="&#xa8;" horiz-adv-x="1439" d="M104 1317q0 143 103 231q94 82 225 82q139 0 234 -94q23 -23 38 -46.5t27 -47.5q27 53 70 96q92 92 229 92q139 0 225 -102q39 -43 57.5 -95.5t18.5 -111.5q0 -61 -20.5 -118.5t-61.5 -104.5q-92 -102 -215 -103q-127 0 -229 99q-45 47 -72 96q-29 -57 -80 -103 q-51 -43 -105 -67.5t-112 -24.5q-141 0 -239 107q-92 98 -93 215z" />
<glyph unicode="&#xa9;" horiz-adv-x="1720" d="M0 819q0 -340 239.5 -579.5t579.5 -239.5t579.5 239.5t239.5 579.5t-239.5 579.5t-579.5 239.5t-579.5 -239.5t-239.5 -579.5zM205 819q0 254 180 434.5t434 180.5t434.5 -180.5t180.5 -434.5t-180.5 -434t-434.5 -180t-434 180t-180 434zM330 825q0 -184 123 -317 q131 -143 338 -143q88 2 165 14q186 29 295 100l-172 172q-90 -53 -256 -57q-115 0 -185.5 69.5t-70.5 161.5q0 98 56 158q68 72 200 72q57 -2 105 -11q111 -23 151 -75l172 143q-106 162 -460 174q-240 0 -361 -145q-100 -121 -100 -316z" />
<glyph unicode="&#xaa;" horiz-adv-x="1001" d="M78 1042q0 160 117 236l-117 -2q0 125 35 194q78 152 254 152h290q74 0 140 -33q147 -76 149 -254q-6 -369 -35 -430q-78 -152 -254 -151h-290q-68 0 -138 34q-151 78 -151 254zM367 1331h290v2h-290v-2zM369 1042h282v2h-276q-2 0 -3 -1t-3 -1z" />
<glyph unicode="&#xac;" horiz-adv-x="2013" d="M76 1075v547h1851v-983h-549v436h-1302z" />
<glyph unicode="&#xad;" d="M31 340v549h1988v-549h-1988z" />
<glyph unicode="&#xae;" horiz-adv-x="1720" d="M0 819q0 -340 239.5 -579.5t579.5 -239.5t579.5 239.5t239.5 579.5t-239.5 579.5t-579.5 239.5t-579.5 -239.5t-239.5 -579.5zM205 819q0 254 180 434.5t434 180.5t434.5 -180.5t180.5 -434.5t-180.5 -434t-434.5 -180t-434 180t-180 434zM422 410h205v307h307 q94 0 102 -103v-204h205v307q-16 102 -205 102h-102q307 9 307 103v153q-16 154 -205 154h-614v-819zM627 870v154h358q47 0 51 -51q-4 -51 -51 -51z" />
<glyph unicode="&#xaf;" horiz-adv-x="1445" d="M119 1057v549h1218v-549h-1218z" />
<glyph unicode="&#xb0;" horiz-adv-x="1011" d="M57 1188q0 180 127 305q128 129 308 129t305 -129q129 -125 129 -305q0 -178 -129 -307q-127 -127 -305 -127q-180 0 -308 127q-127 127 -127 307zM360 1188q0 -55 38.5 -93t93.5 -38t93 38t38 93t-38 94t-93 39t-93.5 -39t-38.5 -94z" />
<glyph unicode="&#xb4;" horiz-adv-x="714" d="M111 887l135 710l456 201l-274 -911h-317z" />
<glyph unicode="&#xb6;" horiz-adv-x="2244" d="M41 1038q0 227 154 398q156 164 383 186h1554v-539h-213v-1470h-539v1470h-313v-1470h-541v848q-98 16 -181 60t-150 118q-154 172 -154 399z" />
<glyph unicode="&#xba;" horiz-adv-x="1011" d="M57 1188q0 180 127 305q128 129 308 129t305 -129q129 -125 129 -305q0 -178 -129 -307q-127 -127 -305 -127q-180 0 -308 127q-127 127 -127 307zM360 1188q0 -55 38.5 -93t93.5 -38t93 38t38 93t-38 94t-93 39t-93.5 -39t-38.5 -94z" />
<glyph unicode="&#xbf;" horiz-adv-x="1589" d="M2 487q0 57 15.5 117t43.5 117q59 117 167 176t261 59h148q10 2 20.5 6.5t18.5 6.5q6 2 10 53l2 162v438h463v-442v-160q0 -301 -250 -428q-117 -55 -235 -55h-177q-31 0 -36 -11q-12 -33 -13 -41q0 -31 11 -36q16 -4 25 -7.5t13 -3.5h535q29 0 39 11q10 37 10 94h436 q0 -182 -57 -291q-129 -252 -428 -252h-535q-125 0 -235 59h2q-254 127 -254 428z" />
<glyph unicode="&#xc6;" horiz-adv-x="3301" d="M68 541q0 156 69.5 270.5t196.5 179.5q121 63 246 64h569q37 0 45 12q10 16 10 28.5v16.5q0 27 -10 41q-14 4 -26.5 8t-22.5 4h-565q-31 0 -45 -14q-8 -27 -14.5 -48.5t-10.5 -35.5l-442 -16q0 186 59 305q137 266 453 266h569q125 0 248 -59q121 -66 186 -166 q139 197 412 196h567q66 0 127 -15t123 -44q264 -137 264 -453q0 -156 -68.5 -270.5t-195.5 -179.5q-123 -63 -250 -64h-567q-35 0 -45 -14v2q-10 -16 -10.5 -28.5t-0.5 -14.5q4 -31 9 -41q16 -4 30.5 -8t22.5 -6h561q35 0 43 10q10 27 17.5 50.5t11.5 37.5l442 16 q0 -184 -59 -303q-141 -268 -455 -268h-567q-125 0 -244 59q-125 66 -192 166q-137 -197 -410 -196h-569q-125 0 -244 59q-268 139 -268 453zM524 541q0 -31 8 -41q16 -6 32 -9.5t22 -5.5h563q29 0 43 29h2q2 4 2 2t0 3t-1 21.5t1 57.5q-12 -2 -24.5 -2h-22.5h-565 q-33 -4 -47 -10q-12 -8 -13 -45zM1948 1024q12 2 24.5 2h22.5h565q33 4 47 12q12 6 12 43q0 29 -10 43q-16 4 -27.5 8.5t-21.5 4.5h-565q-29 0 -43 -27l-2 -2q-2 -2 -2 -84z" />
<glyph unicode="&#xc7;" horiz-adv-x="1196" d="M-10 1040q0 121 32.5 221.5t94.5 176.5q78 88 192.5 136t261.5 48q434 -12 600 -264l-282 -234q-70 92 -176 111q-39 8 -105 12q-127 0 -186 -63q-49 -49 -49 -144q0 -78 59 -141q63 -63 176 -63q86 2 161 22.5t138 56.5l230 -227l-9 -88q-66 -45 -160 -75.5t-200 -49.5 q-4 -2 -8 -2t-8 -2q14 -4 25 -11t26 -16q43 -33 69.5 -71.5t26.5 -83.5q0 -29 -16 -62q-41 -80 -183 -153q-147 -74 -278 -74q-203 8 -326 178l201 139l37 191q-76 31 -135.5 80t-108.5 119q-100 150 -100 333zM377 274q14 -6 26 -10q-8 4 8.5 1t28.5 -5q47 4 95 23 q39 18 38 30q0 -2 -55 -2q-33 -2 -67.5 -10t-73.5 -27z" />
<glyph unicode="&#xdf;" horiz-adv-x="1777" d="M70 -381v1516q0 346 409 479q80 25 176.5 41t210.5 22q233 -12 387 -63q401 -131 412 -471q6 -33 6 -78q0 -127 -81.5 -224t-235.5 -163q-8 -4 -15.5 -7t-15.5 -7q70 -23 119 -56q223 -145 223 -448q-8 -150 -66 -266q-133 -274 -454 -275h-428v479h241q113 0 129 183 q-18 188 -221 188h-313v-850h-483zM553 827q664 18 664 203q0 37 -25 70q-43 61 -186 86l2 -2q-35 6 -72 10t-72 6q-233 -10 -311 -88v-285z" />
<glyph unicode="&#xe5;" horiz-adv-x="1093" d="M0 322q0 -199 166 -283q76 -39 156 -39h399q197 0 280 166q33 61 41 555v8h-2q-2 190 -163 272q-78 41 -156 41h-399q-199 0 -283 -165q-39 -78 -39 -156l242 8q0 8 14.5 39t65.5 31h397q14 0 51 -13q29 -16 29 -63v-2q0 -27 -13 -49q-16 -31 -65 -31h-399 q-80 0 -156 -39q-166 -84 -166 -280zM242 322q0 49 30 65q20 10 50 12h399q39 0 74 9q-2 -115 -9 -125q-22 -41 -65 -41h-399q-12 0 -46 14t-34 66zM246 1372q0 -109 77.5 -186.5t186.5 -77.5q111 0 188.5 78t77.5 186q0 111 -77.5 188.5t-188.5 77.5q-109 0 -186.5 -77.5 t-77.5 -188.5zM379 1372q0 55 39 94t92 39q55 0 94 -39t39 -94q0 -53 -39 -92t-94 -39q-53 0 -92 39t-39 92z" />
<glyph unicode="&#xf7;" horiz-adv-x="1619" d="M0 614v410h1542v-410h-1542zM524 256q0 106 71 181t171 75t171 -75t71 -181t-71 -181t-171 -75t-171 75t-71 181zM524 1382q0 106 71 181t171 75t171 -75t71 -181t-71 -181t-171 -75t-171 75t-71 181z" />
<glyph unicode="&#xf8;" horiz-adv-x="1720" d="M-45 0l229 307q-82 106 -129 237.5t-47 266.5q0 336 238 573q238 238 573 238q78 0 155 -15.5t148 -41.5q14 16 25.5 31.5t19.5 25.5h521l-234 -307q82 -106 129 -237.5t47 -266.5q0 -336 -237 -573q-238 -238 -574 -238q-78 0 -154.5 15.5t-148.5 43.5 q-14 -16 -25.5 -32.5t-19.5 -26.5h-516zM498 811q0 -16 2 -35.5t6 -36.5q74 100 147.5 196.5t147.5 197.5q-61 -4 -114.5 -29t-94.5 -66q-94 -94 -94 -227zM838 489q121 6 209 95q94 94 94 227q0 16 -2 35.5t-6 36.5q-76 -100 -149 -197.5t-146 -196.5z" />
<glyph unicode="&#x152;" horiz-adv-x="3086" d="M0 819q0 -326 217 -563q236 -256 602 -256q377 0 692 139q35 -29 76 -49q117 -59 240 -59h616q305 0 436 254q59 119 60 241l-373 -14q-2 -12 -20 -61q-25 -47 -103 -48h-614q-20 2 -78 21q-45 25 -47 98v2q2 43 20 76q27 47 103 47h616q123 0 242 62q254 129 254 434 t-254 436q-119 59 -242 59h-616q-231 0 -367 -153q-256 154 -641 153q-426 0 -639 -256q-180 -215 -180 -563zM422 819q0 174 98 281q119 129 357 129q102 -4 184 -19q199 -39 270 -135l19 15q-12 -186 -19 -564v-2v-10v-2q-157 -94 -454 -102q-205 0 -334 127 q-121 119 -121 282zM1712 1010q4 178 12 192q35 64 103 64h616q20 -2 76 -21q47 -27 47 -102q0 -76 -47 -103q-33 -16 -76 -18h-616q-59 0 -115 -12z" />
<glyph unicode="&#x2c6;" horiz-adv-x="1536" d="M76 989l518 639h285l520 -639h-459l-201 242q-51 -59 -104 -123t-100 -119h-459z" />
<glyph unicode="&#x2dc;" horiz-adv-x="901" d="M-96 887l260 717l498 200l-437 -917h-321zM238 887l424 893l309 -203l-406 -690h-327z" />
<glyph unicode="&#x2000;" horiz-adv-x="1027" />
<glyph unicode="&#x2001;" horiz-adv-x="2054" />
<glyph unicode="&#x2002;" horiz-adv-x="1027" />
<glyph unicode="&#x2003;" horiz-adv-x="2054" />
<glyph unicode="&#x2004;" horiz-adv-x="684" />
<glyph unicode="&#x2005;" horiz-adv-x="513" />
<glyph unicode="&#x2006;" horiz-adv-x="342" />
<glyph unicode="&#x2007;" horiz-adv-x="342" />
<glyph unicode="&#x2008;" horiz-adv-x="256" />
<glyph unicode="&#x2009;" horiz-adv-x="410" />
<glyph unicode="&#x200a;" horiz-adv-x="114" />
<glyph unicode="&#x2010;" d="M31 340v549h1988v-549h-1988z" />
<glyph unicode="&#x2011;" d="M31 340v549h1988v-549h-1988z" />
<glyph unicode="&#x2012;" d="M31 340v549h1988v-549h-1988z" />
<glyph unicode="&#x2013;" horiz-adv-x="1286" d="M68 369v473h1157v-473h-1157z" />
<glyph unicode="&#x2014;" d="M6 369v473h2038v-473h-2038z" />
<glyph unicode="&#x2018;" horiz-adv-x="872" d="M158 1288q0 -51 10 -100q0 -94 65.5 -159.5t159.5 -65.5q92 0 158.5 65.5t66.5 159.5q0 90 -62 155.5t-150 69.5q6 70 58 209t79 166l-76 76q-309 -272 -309 -576z" />
<glyph unicode="&#x2019;" horiz-adv-x="931" d="M211 1556q0 -90 62.5 -155.5t150.5 -69.5q-6 -70 -58.5 -209t-78.5 -166l75 -75q309 272 310 575q0 51 -10 100q0 94 -66 160t-160 66q-92 0 -158.5 -65.5t-66.5 -160.5z" />
<glyph unicode="&#x201a;" horiz-adv-x="784" d="M158 246q0 -90 61.5 -155.5t151.5 -70.5q-8 -70 -60.5 -209t-79.5 -165l76 -76q311 272 311 575q0 51 -10 101q0 94 -66.5 159.5t-158.5 65.5q-94 0 -159.5 -65.5t-65.5 -159.5z" />
<glyph unicode="&#x201c;" horiz-adv-x="1388" d="M158 1288q0 -51 10 -100q0 -94 65.5 -159.5t159.5 -65.5q92 0 158.5 65.5t66.5 159.5q0 90 -62 155.5t-150 69.5q6 70 58 209t79 166l-76 76q-309 -272 -309 -576zM682 1288q0 -51 10 -100q0 -94 67 -159.5t159 -65.5q94 0 159.5 65.5t65.5 159.5q0 90 -61.5 155.5 t-151.5 69.5q8 70 60 209t79 166l-76 76q-311 -272 -311 -576z" />
<glyph unicode="&#x201d;" horiz-adv-x="1327" d="M158 1638q0 -90 61.5 -155.5t151.5 -69.5q-8 -70 -60.5 -209t-79.5 -166l76 -75q311 272 311 575q0 51 -10 100q0 94 -66.5 160t-158.5 66q-94 0 -159.5 -65.5t-65.5 -160.5zM682 1638q0 -90 62.5 -155.5t150.5 -69.5q-6 -70 -58.5 -209t-78.5 -166l76 -75 q309 272 309 575q0 51 -10 100q0 94 -66 160t-160 66q-92 0 -158.5 -65.5t-66.5 -160.5z" />
<glyph unicode="&#x201e;" horiz-adv-x="1327" d="M158 246q0 -90 61.5 -155.5t151.5 -70.5q-8 -70 -60.5 -209t-79.5 -165l76 -76q311 272 311 575q0 51 -10 101q0 94 -66.5 159.5t-158.5 65.5q-94 0 -159.5 -65.5t-65.5 -159.5zM682 246q0 -90 62.5 -155.5t150.5 -70.5q-6 -70 -58.5 -209t-78.5 -165l76 -76 q309 272 309 575q0 51 -10 101q0 94 -66 159.5t-160 65.5q-92 0 -158.5 -65.5t-66.5 -159.5z" />
<glyph unicode="&#x2022;" horiz-adv-x="1196" d="M72 729q0 174 123 299q125 125 301 125q174 0 297 -125q125 -125 125 -299t-125 -299q-123 -125 -297 -125q-176 0 -301 125q-123 127 -123 299z" />
<glyph unicode="&#x2026;" d="M98 53q0 127 95 221q92 92 231 93q133 0 231 -95q41 -45 62 -90q29 59 80 103q90 82 225 82q72 0 129 -24t104 -71q23 -23 38.5 -46t27.5 -48q23 51 68 96q96 92 231 93q135 0 225 -103q76 -88 76 -207q0 -127 -84 -223q-43 -49 -96 -75.5t-119 -26.5q-127 0 -227 100 q-49 49 -72 96q-25 -55 -82 -106q-49 -41 -104.5 -65.5t-112.5 -24.5q-139 0 -240 106q-20 23 -36.5 45.5t-26.5 44.5q-25 -55 -82 -106q-49 -41 -104.5 -65.5t-108.5 -24.5q-127 0 -227 100t-101 221z" />
<glyph unicode="&#x202f;" horiz-adv-x="410" />
<glyph unicode="&#x2039;" horiz-adv-x="1536" d="M514 496l1022 -383v260l-756 245l756 252v258l-1022 -380v-252z" />
<glyph unicode="&#x203a;" horiz-adv-x="1536" d="M512 113l1022 383v252l-1022 380v-258l748 -252l-748 -245v-260z" />
<glyph unicode="&#x205f;" horiz-adv-x="513" />
<glyph unicode="&#x2122;" horiz-adv-x="1890" d="M100 1577l2 -215l289 2l4 -606l193 2l-6 606l288 2l-2 203zM965 1571l6 -809l192 2l-4 448l123 -448l143 2l117 451l4 -451l191 2l-6 809l-240 -2l-139 -608l-148 606z" />
<glyph unicode="&#xe000;" horiz-adv-x="1402" d="M0 0v1403h1403v-1403h-1403z" />
</font>
</defs>
</svg>
